<?xml version="1.0" encoding="UTF-8" standalone="no"?>
<!-- Created with Inkscape (http://www.inkscape.org/) -->

<svg
   xmlns:dc="http://purl.org/dc/elements/1.1/"
   xmlns:cc="http://creativecommons.org/ns#"
   xmlns:rdf="http://www.w3.org/1999/02/22-rdf-syntax-ns#"
   xmlns:svg="http://www.w3.org/2000/svg"
   xmlns="http://www.w3.org/2000/svg"
   xmlns:sodipodi="http://sodipodi.sourceforge.net/DTD/sodipodi-0.dtd"
   xmlns:inkscape="http://www.inkscape.org/namespaces/inkscape"
   width="32"
   height="18"
   viewBox="0 0 8.466666 4.7624996"
   version="1.1"
   id="svg4135"
   inkscape:version="0.92.2 (5c3e80d, 2017-08-06)"
   sodipodi:docname="banner.svg"
   inkscape:export-filename="D:\Workspace\dr-play\res\banner.png"
   inkscape:export-xdpi="3840"
   inkscape:export-ydpi="3840">
  <defs
     id="defs4129" />
  <sodipodi:namedview
     id="base"
     pagecolor="#ffffff"
     bordercolor="#666666"
     borderopacity="1.0"
     inkscape:pageopacity="0.0"
     inkscape:pageshadow="2"
     inkscape:zoom="19.209628"
     inkscape:cx="17.569335"
     inkscape:cy="10.671608"
     inkscape:document-units="px"
     inkscape:current-layer="layer1"
     showgrid="true"
     showguides="true"
     showborder="true"
     inkscape:showpageshadow="false"
     height="32mm"
     inkscape:guide-bbox="true"
     units="px"
     inkscape:window-width="796"
     inkscape:window-height="403"
     inkscape:window-x="140"
     inkscape:window-y="410"
     inkscape:window-maximized="0"
     objecttolerance="2"
     gridtolerance="2"
     guidetolerance="2"
     inkscape:pagecheckerboard="true"
     borderlayer="true">
    <inkscape:grid
       type="xygrid"
       id="grid4137"
       dotted="false" />
    <sodipodi:guide
       position="4.233333,5.5562495"
       orientation="1,0"
       id="guide36"
       inkscape:locked="false"
       inkscape:label=""
       inkscape:color="rgb(0,0,255)" />
  </sodipodi:namedview>
  <metadata
     id="metadata4132">
    <rdf:RDF>
      <cc:Work
         rdf:about="">
        <dc:format>image/svg+xml</dc:format>
        <dc:type
           rdf:resource="http://purl.org/dc/dcmitype/StillImage" />
        <dc:title></dc:title>
      </cc:Work>
    </rdf:RDF>
  </metadata>
  <g
     inkscape:groupmode="layer"
     id="layer2"
     inkscape:label="bg"
     transform="translate(0,-3.7041664)"
     style="display:inline;opacity:1">
    <rect
       style="fill:#ffffff;stroke-width:0.30669826"
       id="rect4216"
       width="8.4666662"
       height="4.7624998"
       x="-5.6725458e-016"
       y="3.7041664" />
  </g>
  <g
     inkscape:label="Layer 1"
     inkscape:groupmode="layer"
     id="layer1"
     transform="translate(0,-292.2375)"
     style="display:inline">
    <path
       inkscape:connector-curvature="0"
       d="M 0,295.4125 H 8.466666 V 297 H 0 Z"
       id="path3983"
       style="stroke-width:0.08315066" />
    <g
       transform="matrix(0.05579012,0,0,0.05579012,1.9572408,295.57896)"
       style="fill:#ffffff"
       id="g3987">
      <path
         inkscape:connector-curvature="0"
         d="m 32.135,5.66 h -17.69 c -0.158,0 -0.236,0.09 -0.236,0.23 v 11.736 c 0,0.142 0.075,0.23 0.232,0.23 h 17.69 c 5.197,0 7.82,-1.7 7.82,-6.138 0,-4.406 -2.623,-6.06 -7.82,-6.06 z m -4.58,9.956 H 22.01 c -0.158,0 -0.188,-0.062 -0.188,-0.187 V 8.083 c 0,-0.124 0.03,-0.186 0.188,-0.186 h 5.542 c 3.296,0 4.615,0.927 4.615,3.85 -0.002,2.924 -1.32,3.865 -4.616,3.865 z m 40.308,1.748 -5.117,-3.558 c -0.125,-0.092 -0.205,-0.14 -0.205,-0.2 0,-0.062 0.05,-0.095 0.16,-0.095 2.59,0 4.6,-1.185 4.6,-3.815 0,-2.613 -1.73,-4.036 -4.913,-4.036 h -19.39 c -0.156,0 -0.233,0.09 -0.233,0.23 v 11.736 c 0,0.14 0.077,0.232 0.234,0.232 h 7.134 c 0.157,0 0.236,-0.092 0.236,-0.232 V 14.84 c 0,-0.138 0.046,-0.183 0.188,-0.183 h 4.104 c 0.204,0 0.282,0.016 0.423,0.123 l 3.564,2.906 c 0.174,0.14 0.297,0.17 0.502,0.17 h 8.866 c 0.127,0 0.188,-0.045 0.188,-0.14 0.003,-0.118 -0.218,-0.26 -0.343,-0.352 z m -11.11,-4.886 h -6.187 c -0.144,0 -0.19,-0.047 -0.19,-0.186 V 8.086 c 0,-0.14 0.048,-0.186 0.19,-0.186 h 6.186 c 2.07,0 2.95,0.558 2.95,2.244 0,1.7 -0.88,2.334 -2.95,2.334 z"
         id="path3985" />
    </g>
    <path
       sodipodi:type="star"
       style="display:inline;fill:#ff6600;fill-opacity:1;stroke-width:0.26458332"
       id="path4232"
       sodipodi:sides="3"
       sodipodi:cx="4.2333331"
       sodipodi:cy="3.4531212"
       sodipodi:r1="3.2092197"
       sodipodi:r2="1.6046098"
       sodipodi:arg1="-1.5707963"
       sodipodi:arg2="-0.52359878"
       inkscape:flatsided="true"
       inkscape:rounded="0"
       inkscape:randomized="0"
       d="M 4.2333332,0.24390149 7.0125988,5.0577311 1.4540673,5.057731 Z"
       transform="matrix(0,0.35921773,-0.35921773,0,5.3488458,292.24434)"
       inkscape:transform-center-x="-0.28820217"
       inkscape:transform-center-y="-4.8413507e-006" />
  </g>
</svg>
