<svg xmlns="http://www.w3.org/2000/svg" width="24" height="24" viewBox="0 0 24 24">
    <g id="request">
        <path d="M 8.00,3.00 C 8.00,3.00 8.00,5.00 8.00,5.00 8.00,5.00 3.00,5.00 3.00,5.00 3.00,5.00 3.00,10.00 3.00,10.00 3.00,10.00 1.00,10.00 1.00,10.00 1.00,10.00 1.00,3.00 1.00,3.00 1.00,3.00 8.00,3.00 8.00,3.00 Z M 23.00,3.00 C 23.00,3.00 23.00,10.00 23.00,10.00 23.00,10.00 21.00,10.00 21.00,10.00 21.00,10.00 21.00,5.00 21.00,5.00 21.00,5.00 16.00,5.00 16.00,5.00 16.00,5.00 16.00,3.00 16.00,3.00 16.00,3.00 23.00,3.00 23.00,3.00 Z M 3.00,14.00 C 3.00,14.00 3.00,19.00 3.00,19.00 3.00,19.00 8.00,19.00 8.00,19.00 8.00,19.00 8.00,21.00 8.00,21.00 8.00,21.00 1.00,21.00 1.00,21.00 1.00,21.00 1.00,14.00 1.00,14.00 1.00,14.00 3.00,14.00 3.00,14.00 Z M 23.00,14.00 C 23.00,14.00 23.00,21.00 23.00,21.00 23.00,21.00 16.00,21.00 16.00,21.00 16.00,21.00 16.00,19.00 16.00,19.00 16.00,19.00 21.00,19.00 21.00,19.00 21.00,19.00 21.00,14.00 21.00,14.00 21.00,14.00 23.00,14.00 23.00,14.00 Z"/>
    </g>
    <g id="exit">
        <path d="M 8.00,3.00 C 8.00,3.00 8.00,10.00 8.00,10.00 8.00,10.00 1.00,10.00 1.00,10.00 1.00,10.00 1.00,8.00 1.00,8.00 1.00,8.00 6.00,8.00 6.00,8.00 6.00,8.00 6.00,3.00 6.00,3.00 6.00,3.00 8.00,3.00 8.00,3.00 Z M 18.00,3.00 C 18.00,3.00 18.00,8.00 18.00,8.00 18.00,8.00 23.00,8.00 23.00,8.00 23.00,8.00 23.00,10.00 23.00,10.00 23.00,10.00 16.00,10.00 16.00,10.00 16.00,10.00 16.00,3.00 16.00,3.00 16.00,3.00 18.00,3.00 18.00,3.00 Z M 8.00,14.00 C 8.00,14.00 8.00,21.00 8.00,21.00 8.00,21.00 6.00,21.00 6.00,21.00 6.00,21.00 6.00,16.00 6.00,16.00 6.00,16.00 1.00,16.00 1.00,16.00 1.00,16.00 1.00,14.00 1.00,14.00 1.00,14.00 8.00,14.00 8.00,14.00 Z M 23.00,14.00 C 23.00,14.00 23.00,16.00 23.00,16.00 23.00,16.00 18.00,16.00 18.00,16.00 18.00,16.00 18.00,21.00 18.00,21.00 18.00,21.00 16.00,21.00 16.00,21.00 16.00,21.00 16.00,14.00 16.00,14.00 16.00,14.00 23.00,14.00 23.00,14.00 Z"/>
    </g>
</svg>